<?xml version="1.0" encoding="utf-8"?>
<svg version="1.1" id="Layer_3" xmlns="http://www.w3.org/2000/svg" xmlns:xlink="http://www.w3.org/1999/xlink" x="0px" y="0px"
	 viewBox="0 0 217 241" enable-background="new 0 0 217 241" xml:space="preserve">
<text transform="matrix(1 0 0 1 5 236)" fill="#39AEC6" font-family="'MyriadPro-Regular'" font-size="60px">reatomic</text>
<g id="Logo">
	<g id="React" opacity="0.3284">
		<path id="Electrons" fill="none" stroke="#39AEC6" stroke-width="10" d="M161.2,122.7c2.6-0.7,5.1-1.4,7.5-2.2
			c21.5-7.1,34.6-18.2,34.6-28.1c0-9.5-12.3-19.9-32.4-26.8c-3.2-1.1-6.6-2.1-10.2-3l0,0c0.8-2.8,1.4-5.5,2-8.2
			c4.6-22.2,1.5-39.1-7.1-44c-8.2-4.7-23.4,0.7-39.4,14.6c-2.5,2.2-5.1,4.7-7.7,7.3c-2-2.1-4.1-4-6.1-5.8
			c-17-15.1-33.1-20.8-41.6-15.8c-8.2,4.8-11.1,20.7-7,41.5c0.6,3.3,1.5,6.8,2.5,10.4c-3.9,1-7.7,2.1-11.1,3.3
			C25.4,72.6,13.6,83,13.6,92.4c0,9.7,12.6,20.9,33.4,28.1c2.9,1,6,1.9,9.2,2.7c-1.1,3.7-1.9,7.4-2.6,10.9
			c-3.9,20.6-0.8,35.9,7.3,40.6c8.4,4.8,24.4-0.4,41-14.9c2.3-2,4.6-4.2,6.9-6.6c2.7,2.8,5.4,5.3,8.1,7.7
			c15.9,13.6,30.7,18.6,38.9,13.9c8.4-4.9,11.8-21.3,7.6-42.9C162.8,128.8,162.1,125.8,161.2,122.7z M128.9,57.3
			c11.5,1,22.3,2.8,31.9,5.3l0,0c-2.6,9.4-6.5,19.6-11.4,29.9c-2.9-6-6.1-12-9.6-18C136.3,68.4,132.7,62.7,128.9,57.3z M67.7,92.6
			c-5,10.6-8.9,20.9-11.5,30.5c9.6,2.4,20.5,4,32.1,4.9c-3.8-5.5-7.5-11.3-11-17.3C73.7,104.6,70.5,98.5,67.7,92.6z M161.2,122.7
			c-9.6,2.5-20.6,4.3-32.2,5.2c-6.5,9.6-13.3,18.2-20.2,25.2c-6.9-7.1-14-15.6-20.6-25.1c6.6,0.5,13.4,0.7,20.3,0.7
			c7,0,13.9-0.3,20.5-0.8c3.7-5.5,7.3-11.3,10.8-17.3c3.5-6.1,6.7-12.1,9.6-18.2C154.4,102.9,158.5,113.1,161.2,122.7z M56.3,62.4
			c9.5-2.4,20.3-4.2,31.8-5.1c6.6-9.5,13.6-18,20.5-25c6.9,7,13.8,15.5,20.3,25c-6.6-0.6-13.4-0.8-20.4-0.8
			c-6.9,0-13.8,0.3-20.4,0.8c-3.8,5.4-7.4,11.2-10.9,17.2c-3.5,6-6.6,12.1-9.4,18.1C62.8,82.1,58.9,71.9,56.3,62.4z"/>
	</g>
	<path id="Hex" fill="#39AEC6" stroke="#39AEC6" stroke-width="24" d="M108.6,56.5c-7.1,0-14,0.3-20.7,0.9c-3.7,5.4-7.3,11-10.8,17
		c-3.5,6.1-6.7,12.2-9.5,18.2c2.8,6,6,12.1,9.5,18.1c3.5,6.1,7.2,11.9,11,17.3c6.6,0.5,13.5,0.7,20.5,0.7c6.9,0,13.6-0.2,20.2-0.8
		c3.8-5.5,7.4-11.4,11-17.5c3.5-6,6.6-12.1,9.5-18.1c-2.9-6-6.1-12-9.6-17.9c-3.5-6-7.1-11.7-10.8-17.2
		C122.3,56.8,115.6,56.5,108.6,56.5z"/>
	<path id="BrowserExtention" fill="#C3E4EC" d="M144.4,89.8c-0.9,0-2.8-0.1-4.3-0.1c-1.4,0-2.7,0-2.8-0.1l-0.1-0.1v-3.2
		c0-1.8,0-3.7-0.1-4.4l-0.1-1.1h-1.3h-1.3l0-1.2c0-0.7,0.1-1.3,0.1-1.4c0.1-0.5,0.5-4.5,0.7-7.1c0-0.8,0.1-1.8,0.2-2.3
		c0-0.5,0.1-1.4,0.1-2.2l0-1.3l-9.7,0c-5.4,0-9.9,0.1-10,0.1c-0.3,0.1-0.7,0.2-1,0.4c-0.1,0-0.2,0.1-0.3,0.1c-0.1,0-0.1,0-0.1,0.1
		s-0.1,0.1-0.3,0.2c-0.6,0.3-1.5,1.2-1.5,1.5c0,0.1,0,0.1-0.1,0.1c0,0-0.1,0.1-0.1,0.2c0,0.1,0,0.2-0.1,0.2c0,0-0.1,0.1-0.1,0.4
		s0,0.4-0.1,0.4c-0.1,0-0.1,0.5-0.1,1.2c0,0.7,0,1.2,0.1,1.2c0.1,0,0.1,0.2,0.1,0.5c0,0.2,0,0.4,0.1,0.4c0.1,0,0.1,0.1,0.1,0.1
		c0,0.1,0.3,0.7,0.7,1.6c0,0.1,0.1,0.2,0.1,0.3s0,0.1,0.1,0.1c0.1,0,0.1,0.1,0.1,0.1c0,0.1,0,0.2,0.1,0.3c0,0.1,0.1,0.3,0.2,0.5
		c0.1,0.1,0.1,0.4,0.2,0.5c0,0.1,0.1,0.2,0.1,0.4s0,0.2,0.1,0.2c0.1,0,0.1,3.2,0,3.7c-0.2,0.5-0.3,0.8-0.4,1
		c-0.1,0.1-0.2,0.4-0.3,0.6s-0.3,0.5-0.4,0.6c-0.1,0.1-0.2,0.2-0.2,0.3c0,0.1-1.1,1.2-1.2,1.2c-0.1,0-0.2,0.1-0.3,0.2
		c-0.1,0.1-0.2,0.2-0.3,0.2s-0.2,0-0.2,0.1c0,0-0.1,0.1-0.2,0.1s-0.2,0-0.2,0.1c0,0-0.1,0.1-0.2,0.1c-0.1,0-0.2,0-0.2,0.1
		s-0.2,0.1-0.4,0.1c-1.9,0.3-2.2,0.4-3.2,0.2c-1-0.2-1.3-0.2-1.3-0.3c0,0-0.1-0.1-0.2-0.1c-0.1,0-0.2,0-0.2-0.1
		c0-0.1-0.1-0.1-0.2-0.1c-0.1,0-0.2,0-0.2-0.1c0-0.1-0.1-0.1-0.1-0.1c-0.1,0-0.2-0.1-0.3-0.2c-0.1-0.1-0.3-0.3-0.5-0.4
		c-0.4-0.3-0.7-0.6-1-1c-0.1-0.2-0.3-0.4-0.4-0.5c-0.1-0.1-0.2-0.2-0.2-0.3s0-0.1-0.1-0.1c0,0-0.1-0.1-0.1-0.2c0-0.1,0-0.2-0.1-0.2
		c0,0-0.1-0.1-0.1-0.2c0-0.1,0-0.2-0.1-0.2c0,0-0.1-0.1-0.1-0.2c0-0.1,0-0.3-0.1-0.3c-0.3-0.2-0.3-4.3,0-4.5c0,0,0.1-0.2,0.1-0.4
		c0-0.2,0-0.4,0.1-0.4s0.1-0.1,0.1-0.2c0-0.1,0-0.2,0.1-0.2s0.1-0.1,0.1-0.2s0.2-0.5,0.4-1c0.7-1.2,0.8-1.5,0.8-1.6
		c0,0,0-0.2,0.1-0.3c0.2-0.4,0.4-1.6,0.2-1.9c-0.1-0.2-0.1-0.5-0.1-0.7c0-0.2,0-0.4-0.1-0.4c0,0-0.1-0.1-0.1-0.1c0-0.2-0.4-1-0.5-1
		c0,0-0.1-0.1-0.1-0.2c0-0.2-0.7-0.9-1-1c-0.1,0-0.2-0.1-0.2-0.1s-0.1-0.1-0.2-0.1c-0.1,0-0.3,0-0.3-0.1c0-0.1-0.2-0.1-0.4-0.1
		c-0.1,0-0.3,0-0.4-0.1c-0.2-0.2-5.2-0.3-12.1-0.3H81l0,1.1c0,0.6,0.1,1.6,0.1,2.1c0.1,0.5,0.1,1.5,0.2,2.1c0.1,1.2,0.2,2.6,0.4,4.2
		c0.2,2.4,0.3,2.9,0.4,3.8c0,0.5,0.1,1.1,0.1,1.2c0,0.1,0.1,0.5,0.1,0.7c0,0.3,0.1,1,0.1,1.4c0,0.5,0.1,1.5,0.2,2.3
		c0.1,1.9,0.2,2.5,0.3,2.7c0,0.1,0.1,0.2,0.1,0.3s0.1,0.4,0.2,0.6c0.1,0.2,0.2,0.5,0.2,0.5c0,0.1,0.1,0.2,0.2,0.2
		c0.1,0.1,0.2,0.2,0.2,0.2c0,0.1,0.7,0.8,0.8,0.8c0,0,0.2,0.1,0.3,0.2c0.1,0.1,0.4,0.2,0.6,0.3c0.2,0.1,0.5,0.2,0.6,0.2
		c0.1,0,0.7,0.1,1.2,0.1c1,0,1.5-0.1,1.9-0.3c0.1,0,0.2-0.1,0.3-0.1s0.2-0.1,0.3-0.2c0.1-0.1,0.3-0.2,0.4-0.2s0.1,0,0.1-0.1
		c0-0.1,0.1-0.1,0.2-0.1c0.1,0,0.2,0,0.2-0.1c0-0.1,1.7-0.9,1.8-0.9c0.1,0,0.1,0,0.1-0.1c0-0.1,0.1-0.1,0.2-0.1c0.1,0,0.3,0,0.3-0.1
		c0.1-0.1,0.7-0.2,2.2-0.3c0.8,0,1.3,0,1.3,0c0,0.1,0.2,0.1,0.4,0.1s0.4,0,0.4,0.1c0,0,0.1,0.1,0.2,0.1c0.1,0,0.2,0,0.2,0.1
		c0,0,0.1,0.1,0.2,0.1c0.1,0,0.2,0,0.2,0.1c0,0,0.1,0.1,0.2,0.1c0.1,0,0.2,0,0.2,0.1s0.1,0.1,0.3,0.2c0.3,0.1,1.7,1.6,1.7,1.7
		c0,0.1,0.1,0.2,0.2,0.3c0.1,0.1,0.2,0.3,0.2,0.4c0,0.1,0,0.1,0.1,0.1c0.1,0,0.1,0.1,0.1,0.2c0,0.1,0,0.2,0.1,0.2
		c0.1,0,0.1,0.1,0.1,0.2c0,0.1,0,0.3,0.1,0.3c0.1,0,0.1,0.1,0.1,0.3c0,0.1,0,0.2,0.1,0.3c0.1,0.2,0.2,1,0.2,2.5
		c0,1.6-0.1,2.4-0.2,2.5c0,0-0.1,0.2-0.1,0.3c0,0.1-0.1,0.4-0.2,0.6s-0.2,0.5-0.2,0.5c0,0.1,0,0.1-0.1,0.1c0,0-0.1,0.1-0.1,0.2
		s-0.1,0.2-0.2,0.3c-0.1,0.1-0.2,0.2-0.2,0.2c0,0.1-1.2,1.4-1.3,1.4c0,0-0.2,0.1-0.4,0.3c-0.2,0.1-0.4,0.3-0.5,0.3
		c-0.1,0-0.1,0-0.1,0.1c0,0-0.1,0.1-0.2,0.1c-0.1,0-0.2,0-0.2,0.1c0,0-0.1,0.1-0.2,0.1c-0.1,0-0.2,0-0.2,0.1c0,0-0.1,0.1-0.3,0.1
		c-0.2,0-0.4,0-0.4,0.1c-0.2,0.2-3.6,0-3.6-0.2c0,0-0.1-0.1-0.3-0.1c-0.1,0-0.3,0-0.3-0.1c0-0.1-0.1-0.1-0.2-0.1
		c-0.1,0-0.2,0-0.2-0.1c0-0.1-0.1-0.1-0.1-0.1c-0.2,0-0.7-0.2-0.7-0.3c0,0-0.1-0.1-0.2-0.1c-0.1,0-0.2,0-0.2-0.1
		c0-0.1-0.1-0.1-0.2-0.1c-0.1,0-0.2,0-0.2-0.1c0-0.1-0.1-0.1-0.1-0.1s-0.2-0.1-0.3-0.2c-0.2-0.2-0.5-0.4-0.8-0.5
		c-0.1,0-0.3-0.1-0.4-0.2c-0.5-0.2-3.5-0.1-3.5,0.2c0,0-0.1,0.1-0.2,0.1c-0.1,0-0.2,0-0.2,0.1c0,0-0.1,0.1-0.1,0.1
		c-0.1,0-0.2,0.1-0.4,0.2l-0.3,0.2l0.1,0.4c0.2,1.1,0.4,3.1,0.6,5c0,0.6,0.1,1.6,0.2,2.1c0.1,1,0.2,2.2,0.4,3.8
		c0.1,0.5,0.1,1.4,0.1,2c0,0.6,0.1,1.1,0.1,1.2c0.1,0.1,1,0.4,1.3,0.4c0.1,0,0.2,0,0.2,0.1c0,0,0.2,0.1,0.4,0.1c0.2,0,0.5,0,0.5,0.1
		c0,0,0.2,0.1,0.5,0.1s0.4,0,0.4,0.1c0,0,0.2,0.1,0.4,0.1s0.4,0,0.4,0.1c0,0,0.2,0.1,0.4,0.1s0.4,0,0.4,0.1c0,0,0.1,0.1,0.4,0.1
		c0.2,0,0.4,0,0.4,0.1c0,0,0.2,0.1,0.4,0.1c0.2,0,0.4,0,0.4,0.1c0,0,0.2,0.1,0.4,0.1c0.2,0,0.5,0.1,0.7,0.1c0.8,0.2,1.2,0.3,1.5,0.4
		c0.2,0,0.4,0.1,0.5,0.1c0.1,0,0.4,0.1,0.5,0.1c0.2,0,0.5,0.1,0.7,0.1c0.2,0,0.3,0.1,0.3,0.1s0.2,0.1,0.4,0.1
		c0.8,0.1,1.2,0.2,1.2,0.2c0,0,0.2,0.1,0.4,0.1c1,0.1,1.3,0.2,1.3,0.3c0,0,0.2,0.1,0.5,0.1c0.2,0,0.4,0,0.4,0.1c0,0,0.2,0.1,0.4,0.1
		s0.4,0,0.4,0.1s0.2,0.1,0.4,0.1c0.2,0,0.6,0.1,0.8,0.1c1,0.3,1.3,0.3,1.6,0.4c0.2,0,0.4,0.1,0.4,0.1c0,0,0.2,0.1,0.4,0.1
		c0.2,0,0.4,0,0.5,0.1c0,0.1,0.2,0.1,0.4,0.1c0.1,0,0.3,0,0.3,0.1s0.1,0.1,0.4,0.1c0.2,0,0.5,0.1,0.7,0.1s0.4,0.1,0.4,0.1
		c0.1,0.1,0.6,0.1,0.7,0c0-0.1,0.2-0.1,0.4-0.1s0.4,0,0.4-0.1c0-0.1,0.2-0.1,0.3-0.1c0.1,0,0.2,0,0.3-0.1s0.2-0.1,0.4-0.1
		s0.5-0.1,0.8-0.2c0.2-0.1,0.6-0.1,0.8-0.2c0.2,0,0.4-0.1,0.4-0.1c0,0,0.2-0.1,0.5-0.1c0.2,0,0.4,0,0.4-0.1c0-0.1,0.2-0.1,0.4-0.1
		s0.4,0,0.4-0.1c0-0.1,0.2-0.1,0.4-0.1s0.4,0,0.4-0.1c0-0.1,0.2-0.1,0.4-0.1s0.4,0,0.5-0.1c0-0.1,0.2-0.1,0.4-0.1s0.4,0,0.4-0.1
		c0,0,0.2-0.1,0.4-0.1c0.2,0,0.6-0.1,0.8-0.2c0.2-0.1,0.6-0.1,0.7-0.1c0.2,0,0.4-0.1,0.5-0.1c0.2-0.1,0.7-0.2,1.2-0.3
		c0.2,0,0.4-0.1,0.4-0.1c0-0.1,0.4-0.1,1.2-0.2c0.2,0,0.4-0.1,0.4-0.1c0,0,0.1-0.1,0.4-0.1s0.4,0,0.4-0.1c0-0.1,0.2-0.1,0.4-0.1
		c0.2,0,0.5-0.1,0.7-0.1c0.2-0.1,0.6-0.1,0.8-0.2c0.2-0.1,0.6-0.1,0.8-0.2c0.2,0,0.5-0.1,0.7-0.1c0.2,0,0.4-0.1,0.5-0.1
		c0.2-0.1,0.7-0.2,1.3-0.3c0.2,0,0.4-0.1,0.4-0.1s0.1-0.1,0.2-0.1c0.2,0,0.8-0.1,1.1-0.3c0.1,0,0.3-0.1,0.4-0.1c0.1,0,0.2,0,0.2-0.1
		c0-0.1,0.1-0.1,0.2-0.1h0.2l0.1-0.9c0.1-2,0.4-4.4,0.5-5.2l0.1-0.5h2.8h2.8l0.1-1.2c0-0.6,0.1-2.6,0.1-4.4l0-3.2h4.1
		c2.4,0,4.2,0,4.4-0.1l0.2-0.1v-5.5v-5.5L144.4,89.8z M126.3,111.7l-0.1,1.2l-0.2,0.1c-0.1,0-2.1,0.6-4.5,1.2
		c-2.4,0.6-5.5,1.4-6.9,1.7c-4.3,1.1-6,1.5-6.1,1.5c-0.1,0-0.2-29.2,0-29.5c0.1-0.2,0.2-0.2,0.4-0.2c0.9,0,2.7-0.5,3.8-1.2
		c2.8-1.5,4.5-4,4.8-6.9c0.2-1.9-0.1-3.8-1.2-7.3c-0.1-0.5-0.2-0.8-0.1-1c0.1-0.4,0.8-1,1.3-1.2l0.5-0.2l6.1,0
		c3.9,0,6.1,0.1,6.1,0.1c0.1,0.1,0.1,0.4,0,0.7c0,0.4-0.1,1.2-0.2,1.9c-0.1,0.7-0.1,1.7-0.2,2.2c-0.2,2-0.3,3.1-0.4,4.4l-0.1,1.4
		l-0.2,0c-0.1,0-1.3,0.1-2.6,0.1s-2.5,0-2.6,0.1l-0.1,0.1l0,4.2c0,2.3-0.1,4.2-0.1,4.3c0,0-1.9,0.1-4.2,0.1c-3.3,0-4.2,0-4.3,0.1
		c-0.1,0.1-0.1,1.3-0.1,5.9v5.7l0.2,0.1l0.2,0.1h4.1h4.1l0.1,0.5c0,0.2,0.1,2.2,0.1,4.2v3.7l0.1,0.1c0.1,0.1,0.4,0.1,1.3,0.1
		c0.6,0,1.2,0,1.2,0.1C126.4,110.4,126.4,111.1,126.3,111.7z M143.4,95.4v3.1h-4.4h-4.3v4.4v4.4h-3.9H127v-4.4v-4.4h-4.4h-4.4v-3.1
		v-3.1h4.4h4.4V88v-4.4h3.9h3.9V88v4.4h4.4h4.4L143.4,95.4L143.4,95.4z"/>
</g>
</svg>
