<?xml version="1.0" encoding="utf-8"?>
<svg version="1.1" id="reatomic" xmlns:sketch="http://www.bohemiancoding.com/sketch/ns"
	 xmlns="http://www.w3.org/2000/svg" xmlns:xlink="http://www.w3.org/1999/xlink" x="0px" y="0px" viewBox="-24.5 115 564 564"
	 enable-background="new -24.5 115 564 564" xml:space="preserve">
<g id="Components">
	<g id="React" opacity="0.3284">
		<path id="Electrons" fill="none" stroke="#39AEC6" stroke-width="24" d="M407,482c7.4-1.9,14.5-4,21.3-6.3
			c61-20.2,98.1-51.7,98.1-79.7c0-26.9-34.9-56.5-91.8-76.1c-9.1-3.1-18.7-6-28.8-8.6l0,0c2.2-7.9,4.1-15.7,5.6-23.2
			c13-63,4.2-110.8-20.1-124.8c-23.3-13.4-66.4,2-111.8,41.5c-7.2,6.3-14.5,13.2-21.8,20.7c-5.8-5.9-11.5-11.4-17.3-16.5
			c-48.1-42.7-93.9-59-118.1-44.9c-23.2,13.5-31.4,58.6-19.9,117.6c1.8,9.5,4.2,19.3,7,29.4c-11.1,2.8-21.7,6-31.5,9.4
			c-56,19.5-89.4,49-89.4,75.6c0,27.5,35.6,59.4,94.6,79.6c8.2,2.8,16.9,5.3,26,7.6c-3,10.6-5.4,20.9-7.3,30.8
			c-11.1,58.3-2.2,101.9,20.8,115.2c23.8,13.7,69.2-1.1,116.2-42.2c6.5-5.7,13.1-12,19.6-18.7c7.7,7.9,15.4,15.1,23,21.7
			c45,38.7,87.2,52.8,110.2,39.5c23.8-13.8,33.6-60.5,21.5-121.7C411.6,499.4,409.5,490.8,407,482z M315.4,296.5
			c32.7,2.8,63.3,7.9,90.4,14.9l0,0c-7.4,26.7-18.5,55.5-32.4,84.9c-8.2-16.9-17.3-34-27.2-51C336.4,328.2,326.1,311.9,315.4,296.5z
			 M141.9,396.6c-14.1,30-25.2,59.4-32.7,86.6c27.2,6.8,58.1,11.4,90.9,13.8c-10.8-15.5-21.3-32-31.3-49.1
			C158.9,430.8,149.9,413.6,141.9,396.6z M407,482c-27.3,7.1-58.3,12.1-91.3,14.7c-18.4,27.1-37.7,51.5-57.2,71.6
			C238.8,548.2,218.9,524,200,497c18.6,1.4,37.9,2,57.5,2c19.8,0,39.3-0.8,58.2-2.3c10.5-15.5,20.8-32,30.6-49
			c9.9-17.2,19-34.4,27.1-51.5C387.8,425.9,399.3,455,407,482z M109.5,311c27-6.9,57.7-11.9,90.2-14.6c18.8-27,38.5-51,58.1-70.9
			c19.5,19.9,39.1,44,57.6,71c-18.7-1.6-38.1-2.4-57.9-2.4c-19.7,0-39.1,0.8-57.8,2.4c-10.7,15.4-21.1,31.8-31,48.9
			c-9.8,17.1-18.8,34.3-26.8,51.3C128,367,117,337.9,109.5,311z"/>
	</g>
	<path id="Hex" fill="#39AEC6" stroke="#39AEC6" stroke-width="24" d="M258,294.3c-20.1,0-39.8,0.9-58.8,2.5
		c-10.6,15.2-20.8,31.3-30.5,48.2c-9.9,17.2-18.9,34.5-27,51.7c8,17,17,34.2,26.9,51.4c9.9,17.2,20.5,33.7,31.3,49.2
		c18.8,1.4,38.3,2.1,58.1,2.1c19.5,0,38.6-0.7,57.2-2.2c10.7-15.7,21.1-32.4,31.1-49.7c9.8-17,18.8-34.2,26.9-51.2
		c-8.2-16.9-17.3-33.9-27.1-50.9c-9.8-16.9-20.1-33.3-30.7-48.7C296.7,295.1,277.6,294.3,258,294.3z"/>
	<path id="BrowserExtention" fill="#C3E4EC" d="M359.3,388.7c-2.6-0.1-8-0.2-12.1-0.2c-4,0-7.6-0.1-7.8-0.2l-0.4-0.2v-9.2
		c0-5.1-0.1-10.6-0.2-12.4l-0.2-3.1h-3.7h-3.7l0.1-3.5c0.1-1.9,0.2-3.7,0.3-4c0.4-1.4,1.5-12.8,2.1-20.2c0.1-2.2,0.4-5.1,0.6-6.5
		c0.1-1.4,0.3-4.1,0.4-6.1l0.1-3.6l-27.6,0.1c-15.2,0.1-28,0.2-28.5,0.3c-0.9,0.2-1.9,0.6-2.7,1c-0.3,0.1-0.7,0.3-0.9,0.3
		c-0.2,0-0.4,0.1-0.4,0.2c0,0.1-0.3,0.4-0.8,0.6c-1.7,0.9-4.3,3.5-4.3,4.3c0,0.2-0.1,0.4-0.3,0.4c-0.1,0-0.3,0.3-0.3,0.6
		c0,0.3-0.1,0.6-0.3,0.6c-0.1,0-0.3,0.4-0.3,1s-0.1,1.1-0.3,1.2c-0.2,0.1-0.3,1.5-0.3,3.4s0.1,3.3,0.3,3.4c0.2,0.1,0.3,0.7,0.3,1.3
		c0,0.6,0.1,1.1,0.3,1.1c0.2,0,0.3,0.2,0.3,0.4c0,0.3,0.8,2.1,2,4.4c0.1,0.3,0.3,0.7,0.3,0.9s0.1,0.4,0.3,0.4c0.2,0,0.3,0.2,0.3,0.4
		c0,0.2,0.1,0.6,0.3,0.9c0.1,0.3,0.4,0.8,0.6,1.3c0.2,0.4,0.4,1.1,0.6,1.3c0.1,0.3,0.3,0.7,0.3,1c0,0.3,0.1,0.6,0.3,0.6
		c0.4,0.1,0.4,9.2,0,10.4c-0.5,1.4-0.9,2.3-1.2,2.9c-0.2,0.3-0.6,1.1-0.9,1.7c-0.3,0.6-0.8,1.3-1.1,1.6c-0.3,0.3-0.5,0.6-0.5,0.8
		c0,0.4-3,3.4-3.5,3.4c-0.2,0-0.5,0.3-0.8,0.6c-0.2,0.3-0.6,0.6-0.9,0.6c-0.3,0-0.5,0.1-0.5,0.3c0,0.1-0.3,0.3-0.6,0.3
		s-0.6,0.1-0.6,0.3c0,0.1-0.3,0.3-0.6,0.3c-0.3,0-0.6,0.1-0.6,0.3s-0.5,0.3-1,0.4c-5.5,0.9-6.2,1-9.1,0.5c-2.9-0.5-3.7-0.7-3.8-0.9
		c-0.1-0.1-0.4-0.3-0.7-0.3c-0.3,0-0.5-0.1-0.5-0.3c0-0.2-0.3-0.3-0.6-0.3c-0.3,0-0.6-0.1-0.6-0.3c0-0.2-0.2-0.3-0.4-0.3
		c-0.3,0-0.7-0.2-0.9-0.5c-0.3-0.3-0.9-0.8-1.4-1.2c-1.2-0.9-1.9-1.6-2.8-2.8c-0.4-0.5-0.9-1.2-1.2-1.5c-0.3-0.3-0.5-0.7-0.5-0.9
		s-0.1-0.4-0.3-0.4c-0.1,0-0.3-0.3-0.3-0.6c0-0.3-0.1-0.6-0.3-0.6c-0.1,0-0.3-0.3-0.3-0.6c0-0.3-0.1-0.6-0.3-0.6
		c-0.1,0-0.3-0.3-0.3-0.7c0-0.4-0.1-0.8-0.3-0.8c-0.9-0.6-0.9-12.1,0-12.7c0.1-0.1,0.3-0.6,0.3-1.1c0-0.5,0.1-1,0.3-1
		c0.2,0,0.3-0.3,0.3-0.6c0-0.3,0.1-0.6,0.3-0.6c0.2,0,0.3-0.2,0.3-0.5c0-0.3,0.5-1.5,1.2-2.7c1.9-3.5,2.2-4.3,2.2-4.6
		c0-0.1,0.1-0.5,0.3-0.8c0.6-1.1,1-4.4,0.6-5.4c-0.2-0.5-0.3-1.5-0.3-2.1c0-0.7-0.1-1.2-0.3-1.2c-0.1,0-0.3-0.2-0.3-0.4
		c0-0.5-1.2-2.7-1.5-2.9c-0.1-0.1-0.2-0.3-0.2-0.5c0-0.5-2.1-2.6-2.8-2.8c-0.3-0.1-0.5-0.3-0.5-0.4c0-0.1-0.3-0.3-0.7-0.3
		c-0.4,0-0.8-0.1-0.9-0.3c-0.1-0.2-0.5-0.3-1-0.3c-0.4,0-0.9-0.1-1-0.3c-0.5-0.5-14.7-0.8-34.2-0.8h-19l0.1,3.1
		c0.1,1.7,0.3,4.4,0.4,6c0.2,1.5,0.4,4.3,0.6,6c0.3,3.3,0.7,7.5,1.2,11.9c0.7,6.7,0.8,8.1,1,10.7c0.1,1.5,0.3,3.1,0.4,3.4
		c0.1,0.3,0.3,1.3,0.4,2.1c0.1,0.8,0.3,2.7,0.4,4.1c0.1,1.4,0.4,4.3,0.5,6.5c0.3,5.4,0.6,7.2,0.9,7.6c0.1,0.2,0.3,0.5,0.3,0.8
		c0,0.3,0.3,1.1,0.6,1.7c0.3,0.6,0.6,1.3,0.6,1.5c0,0.2,0.3,0.5,0.6,0.7c0.3,0.2,0.6,0.6,0.6,0.7c0,0.4,2,2.4,2.3,2.4
		c0.1,0,0.5,0.2,0.8,0.5c0.3,0.3,1.1,0.7,1.7,0.9c0.6,0.2,1.4,0.5,1.7,0.6c0.3,0.1,1.9,0.3,3.5,0.3c2.8,0,4.2-0.2,5.5-0.9
		c0.3-0.1,0.6-0.3,0.8-0.3c0.2,0,0.6-0.3,0.9-0.6c0.3-0.3,0.8-0.6,1-0.6c0.2,0,0.4-0.1,0.4-0.3c0-0.2,0.3-0.3,0.5-0.3
		c0.3,0,0.6-0.1,0.6-0.2c0.1-0.3,4.7-2.6,5.2-2.6c0.2,0,0.4-0.1,0.4-0.3c0-0.2,0.3-0.3,0.7-0.3c0.4,0,0.8-0.1,0.8-0.3
		c0.3-0.4,2.1-0.6,6.2-0.8c2.4-0.1,3.6-0.1,3.6,0.1c0,0.2,0.5,0.3,1.1,0.3c0.6,0,1.1,0.1,1.1,0.3c0,0.1,0.3,0.3,0.6,0.3
		s0.6,0.1,0.6,0.3c0,0.1,0.3,0.3,0.6,0.3c0.3,0,0.6,0.1,0.6,0.3c0,0.1,0.3,0.3,0.6,0.3c0.3,0,0.6,0.1,0.6,0.2c0,0.1,0.3,0.4,0.8,0.6
		c0.8,0.4,4.8,4.4,4.8,4.8c0,0.2,0.3,0.5,0.6,0.9s0.6,0.8,0.6,1c0,0.2,0.1,0.4,0.3,0.4c0.2,0,0.3,0.3,0.3,0.6c0,0.3,0.1,0.6,0.3,0.6
		c0.2,0,0.3,0.3,0.3,0.7c0,0.4,0.1,0.8,0.3,0.9c0.2,0.1,0.3,0.4,0.3,0.8c0,0.3,0.1,0.7,0.3,0.9c0.4,0.5,0.6,2.7,0.6,7.1
		s-0.2,6.7-0.6,7.2c-0.1,0.1-0.3,0.5-0.3,0.8c0,0.3-0.3,1.1-0.6,1.7c-0.3,0.6-0.6,1.3-0.6,1.5c0,0.2-0.1,0.4-0.3,0.4
		c-0.1,0-0.3,0.2-0.3,0.5c0,0.3-0.3,0.7-0.6,0.9c-0.3,0.2-0.6,0.6-0.6,0.7c0,0.4-3.5,4-3.8,4c-0.1,0-0.7,0.4-1.2,0.8
		c-0.5,0.4-1.2,0.8-1.3,0.8c-0.2,0-0.4,0.1-0.4,0.3c0,0.1-0.3,0.3-0.6,0.3c-0.3,0-0.6,0.1-0.6,0.3c0,0.1-0.3,0.3-0.6,0.3
		s-0.6,0.1-0.6,0.3c0,0.1-0.4,0.3-0.9,0.3c-0.5,0-1.1,0.1-1.2,0.3c-0.5,0.5-10.2-0.1-10.2-0.6c0-0.1-0.4-0.3-0.8-0.3
		c-0.4,0-0.8-0.1-0.8-0.3c0-0.2-0.3-0.3-0.6-0.3c-0.3,0-0.6-0.1-0.6-0.3c0-0.2-0.2-0.3-0.4-0.3c-0.5,0-1.9-0.7-1.9-0.9
		c0-0.1-0.3-0.2-0.6-0.2c-0.3,0-0.6-0.1-0.6-0.3c0-0.2-0.3-0.3-0.6-0.3s-0.6-0.1-0.6-0.3c0-0.2-0.2-0.3-0.4-0.3s-0.6-0.2-0.9-0.5
		c-0.6-0.5-1.5-1-2.4-1.5c-0.3-0.1-0.8-0.4-1.1-0.5c-1.4-0.7-9.8-0.2-9.8,0.6c0,0.1-0.3,0.2-0.6,0.2c-0.3,0-0.6,0.1-0.6,0.3
		c0,0.1-0.2,0.3-0.3,0.3c-0.2,0-0.7,0.3-1.2,0.7l-0.8,0.7l0.2,1.2c0.5,3.2,1.1,8.8,1.6,14.3c0.1,1.8,0.4,4.4,0.6,5.9
		c0.3,2.8,0.7,6.2,1.1,10.7c0.2,1.5,0.4,4,0.4,5.8c0.1,1.7,0.3,3.2,0.4,3.4c0.3,0.4,2.8,1.2,3.6,1.2c0.3,0,0.6,0.1,0.6,0.3
		c0,0.1,0.6,0.3,1.2,0.3c0.7,0,1.3,0.1,1.4,0.3c0.1,0.1,0.7,0.3,1.3,0.3c0.6,0,1.1,0.1,1.1,0.3c0,0.1,0.5,0.3,1.1,0.3
		s1.1,0.1,1.1,0.3c0,0.1,0.5,0.3,1.1,0.3c0.6,0,1.1,0.1,1.1,0.3c0,0.1,0.4,0.3,1,0.3c0.5,0,1.1,0.1,1.2,0.3c0.1,0.1,0.6,0.3,1.1,0.3
		s1,0.1,1.1,0.3c0.1,0.1,0.6,0.3,1.1,0.4c0.5,0.1,1.4,0.3,2.1,0.4c2.2,0.6,3.4,0.8,4.2,1c0.5,0.1,1.1,0.3,1.4,0.4s1,0.3,1.5,0.4
		c0.5,0.1,1.4,0.2,1.9,0.3c0.5,0.1,0.9,0.3,0.9,0.4s0.5,0.3,1.2,0.4c2.3,0.3,3.3,0.5,3.3,0.7c0,0.1,0.5,0.3,1.2,0.4
		c2.9,0.4,3.6,0.5,3.7,0.8c0.1,0.1,0.6,0.3,1.3,0.3c0.6,0,1.1,0.1,1.1,0.3c0,0.1,0.5,0.3,1.1,0.3s1.1,0.1,1.1,0.3s0.5,0.3,1.2,0.4
		c0.6,0.1,1.7,0.3,2.4,0.4c2.9,0.8,3.6,0.9,4.5,1.1c0.5,0.1,1,0.3,1.1,0.4s0.6,0.3,1.2,0.3c0.6,0,1.2,0.1,1.3,0.3
		c0.1,0.2,0.5,0.3,1,0.3c0.4,0,0.8,0.1,0.8,0.3s0.4,0.3,1,0.4c0.5,0.1,1.4,0.3,2,0.3s1.1,0.3,1.2,0.4c0.2,0.3,1.7,0.3,1.9,0
		c0.1-0.2,0.6-0.3,1.1-0.3s1-0.1,1.1-0.3c0.1-0.2,0.5-0.3,0.8-0.3c0.4,0,0.7-0.1,0.8-0.3s0.6-0.3,1.1-0.4c0.5-0.1,1.5-0.3,2.2-0.5
		c0.7-0.2,1.7-0.4,2.3-0.5c0.6-0.1,1.1-0.3,1.2-0.4c0.1-0.1,0.6-0.3,1.3-0.3c0.6,0,1.1-0.1,1.1-0.3c0-0.2,0.5-0.3,1.1-0.3
		s1.1-0.1,1.1-0.3c0-0.2,0.5-0.3,1.1-0.3s1.1-0.1,1.1-0.3c0-0.2,0.5-0.3,1.1-0.3c0.6,0,1.2-0.1,1.3-0.3c0.1-0.2,0.6-0.3,1.1-0.3
		s1-0.1,1.1-0.3c0.1-0.1,0.6-0.3,1.2-0.4c0.6-0.1,1.6-0.3,2.3-0.5c0.7-0.2,1.7-0.4,2.1-0.4c0.5-0.1,1.1-0.3,1.4-0.4
		c0.7-0.3,1.9-0.6,3.5-0.8c0.6-0.1,1.2-0.3,1.2-0.4c0-0.2,1-0.4,3.3-0.7c0.6-0.1,1.2-0.3,1.2-0.4s0.4-0.3,1-0.3s1-0.1,1.1-0.3
		s0.6-0.3,1.1-0.4c0.5-0.1,1.5-0.3,2.1-0.4c0.6-0.2,1.7-0.4,2.3-0.6c0.6-0.2,1.6-0.4,2.2-0.6c0.6-0.1,1.4-0.3,1.9-0.4
		c0.5-0.1,1.1-0.3,1.4-0.4c0.6-0.3,1.9-0.5,3.7-0.8c0.6-0.1,1.2-0.3,1.2-0.4s0.3-0.3,0.6-0.3c0.6,0,2.3-0.4,3.1-0.9
		c0.3-0.1,0.8-0.3,1.2-0.3c0.4,0,0.7-0.1,0.7-0.3c0-0.2,0.2-0.3,0.5-0.3h0.5l0.2-2.5c0.4-5.6,1.1-12.6,1.4-14.7l0.2-1.3h7.8h7.8
		l0.2-3.3c0.1-1.8,0.2-7.4,0.2-12.4l0.1-9h11.7c6.9,0,12-0.1,12.4-0.3l0.7-0.3v-15.7v-15.7L359.3,388.7z M308.2,451l-0.3,3.5
		l-0.5,0.3c-0.3,0.1-6,1.7-12.8,3.4c-6.8,1.7-15.5,3.9-19.5,4.9c-12.1,3.1-17,4.3-17.3,4.3c-0.4,0-0.5-82.7-0.1-83.8
		c0.2-0.5,0.5-0.7,1-0.7c2.5,0,7.7-1.5,10.9-3.3c7.9-4.2,12.9-11.4,13.7-19.5c0.5-5.3-0.4-10.9-3.4-20.8c-0.4-1.3-0.6-2.4-0.4-2.9
		c0.3-1.1,2.2-2.8,3.8-3.5l1.5-0.6l17.2,0.1c11,0,17.3,0.2,17.4,0.3c0.2,0.2,0.2,1,0.1,2.1c-0.1,1-0.4,3.4-0.6,5.3s-0.4,4.7-0.6,6.2
		c-0.6,5.8-0.8,8.7-1.2,12.6l-0.3,4l-0.6,0.1c-0.3,0.1-3.7,0.2-7.5,0.2c-3.8,0-7.1,0.1-7.3,0.3l-0.4,0.3l-0.1,11.9
		c-0.1,6.5-0.2,12-0.4,12.1c-0.1,0.1-5.5,0.2-12,0.2c-9.3,0-11.9,0.1-12.1,0.4s-0.4,3.7-0.4,16.7v16.3l0.5,0.4l0.6,0.4h11.7h11.7
		l0.2,1.3c0.1,0.7,0.2,6.1,0.2,11.9v10.6l0.4,0.4c0.3,0.4,1.1,0.4,3.6,0.4c1.8,0,3.3,0.1,3.4,0.3C308.4,447.3,308.4,449.1,308.2,451
		z M356.7,404.8v8.7h-12.4H332v12.4v12.4h-11h-11v-12.4v-12.4h-12.4h-12.4v-8.7v-8.7h12.4h12.4v-12.4v-12.4h11h11v12.4v12.4h12.4
		h12.4V404.8z"/>
</g>
</svg>
